<svg version="1.1" viewBox="0.0 0.0 500.0 500.0" fill="none" stroke="none" stroke-linecap="square" stroke-miterlimit="10" xmlns:xlink="http://www.w3.org/1999/xlink" xmlns="http://www.w3.org/2000/svg"><clipPath id="p.0"><path d="m0 0l500.0 0l0 500.0l-500.0 0l0 -500.0z" clip-rule="nonzero"/></clipPath><g clip-path="url(#p.0)"><path fill="#000000" fill-opacity="0.0" d="m0 0l500.0 0l0 500.0l-500.0 0z" fill-rule="evenodd"/><path fill="#000000" fill-opacity="0.0" d="m157.87856 485.4042c-39.785324 0 -72.037704 -32.25238 -72.037704 -72.03772l0 -91.34192c0 -39.78531 -32.252377 -72.03769 -72.037704 -72.03769c39.785324 0 72.037704 -32.25238 72.037704 -72.037704l0 -91.34192l0 0c0 -39.785324 32.25238 -72.037704 72.037704 -72.037704l184.22716 0c19.10556 0 37.42865 7.5896645 50.938324 21.099354c13.509705 13.509689 21.099365 31.832764 21.099365 50.938347l0 91.34192c0 39.785324 32.25238 72.037704 72.03769 72.037704c-39.78531 0 -72.03769 32.25238 -72.03769 72.03769l0 91.34192c0 39.78534 -32.25238 72.03772 -72.03769 72.03772z" fill-rule="evenodd"/><path fill="#000000" fill-opacity="0.0" d="m157.87856 485.4042c-39.785324 0 -72.037704 -32.25238 -72.037704 -72.03772l0 -91.34192c0 -39.78531 -32.252377 -72.03769 -72.037704 -72.03769c39.785324 0 72.037704 -32.25238 72.037704 -72.037704l0 -91.34192l0 0c0 -39.785324 32.25238 -72.037704 72.037704 -72.037704m184.22716 0c19.10556 0 37.42865 7.5896645 50.938324 21.099354c13.509705 13.509689 21.099365 31.832764 21.099365 50.938347l0 91.34192c0 39.785324 32.25238 72.037704 72.03769 72.037704c-39.78531 0 -72.03769 32.25238 -72.03769 72.03769l0 91.34192c0 39.78534 -32.25238 72.03772 -72.03769 72.03772" fill-rule="evenodd"/><path stroke="#045e8e" stroke-width="24.0" stroke-linejoin="round" stroke-linecap="butt" d="m157.87856 485.4042c-39.785324 0 -72.037704 -32.25238 -72.037704 -72.03772l0 -91.34192c0 -39.78531 -32.252377 -72.03769 -72.037704 -72.03769c39.785324 0 72.037704 -32.25238 72.037704 -72.037704l0 -91.34192l0 0c0 -39.785324 32.25238 -72.037704 72.037704 -72.037704m184.22716 0c19.10556 0 37.42865 7.5896645 50.938324 21.099354c13.509705 13.509689 21.099365 31.832764 21.099365 50.938347l0 91.34192c0 39.785324 32.25238 72.037704 72.03769 72.037704c-39.78531 0 -72.03769 32.25238 -72.03769 72.03769l0 91.34192c0 39.78534 -32.25238 72.03772 -72.03769 72.03772" fill-rule="evenodd"/><path fill="#000000" fill-opacity="0.0" d="m95.56956 -131.24147l317.41733 0l0 492.8819l-317.41733 0z" fill-rule="evenodd"/><path fill="#045e8e" d="m341.7376 207.75853q0 12.265625 -2.125 21.328125l-21.328125 0q2.125 8.546875 2.125 21.34375q0 12.26564 -2.125 21.32814l21.328125 0q2.125 8.53125 2.125 21.328125q0 12.265625 -2.125 21.34375q2.125 8.53125 2.125 21.328125q0 12.265625 -2.125 21.328125l-21.328125 0q2.125 8.53125 2.125 21.34375q0 12.265625 -2.125 21.328125l-149.34375 0q-2.125 -9.0625 -2.125 -21.328125q0 -12.8125 2.125 -21.34375q-2.125 -9.0625 -2.125 -21.328125q0 -12.796875 2.125 -21.328125q-2.125 -9.078125 -2.125 -21.34375q0 -12.796875 2.125 -21.328125q-2.125 -9.0625 -2.125 -21.32814q0 -12.796875 2.125 -21.34375q-2.125 -9.0625 -2.125 -21.328125q0 -12.796875 2.125 -21.328125q-2.125 -9.0625 -2.125 -21.34375q0 -12.796875 2.125 -21.328125q-2.125 -9.0625 -2.125 -21.328125q0 -12.796875 2.125 -21.328125l149.34375 0q2.125 8.53125 2.125 21.328125q0 12.265625 -2.125 21.328125l21.328125 0q2.125 8.53125 2.125 21.328125q0 12.28125 -2.125 21.34375q2.125 8.53125 2.125 21.328125zm-44.796875 21.328125q-2.125 -9.0625 -2.125 -21.328125q0 -12.796875 2.125 -21.328125q-2.125 -9.0625 -2.125 -21.34375q0 -12.796875 2.125 -21.328125l-85.328125 0q2.125 8.53125 2.125 21.328125q0 12.28125 -2.125 21.34375q2.125 8.53125 2.125 21.328125q0 12.265625 -2.125 21.328125l85.328125 0zm0 85.343765q-2.125 -9.078125 -2.125 -21.34375q0 -12.796875 2.125 -21.328125l-85.328125 0q2.125 8.53125 2.125 21.328125q0 12.265625 -2.125 21.34375q2.125 8.53125 2.125 21.328125q0 12.265625 -2.125 21.328125l85.328125 0q-2.125 -9.0625 -2.125 -21.328125q0 -12.796875 2.125 -21.328125z" fill-rule="nonzero"/></g></svg>